<?xml version="1.0" encoding="utf-8" standalone="no"?>
<!DOCTYPE svg PUBLIC "-//W3C//DTD SVG 1.1//EN"
  "http://www.w3.org/Graphics/SVG/1.1/DTD/svg11.dtd">
<!-- Created with matplotlib (http://matplotlib.sourceforge.net/) -->
<svg height="72pt" version="1.1" viewBox="0 0 72 72" width="72pt" xmlns="http://www.w3.org/2000/svg" xmlns:xlink="http://www.w3.org/1999/xlink">
 <defs>
  <style type="text/css">
*{stroke-linecap:square;stroke-linejoin:round;}
  </style>
 </defs>
 <g id="figure_1">
  <g id="patch_1">
   <path d="
M0 72
L72 72
L72 0
L0 0
z
" style="fill:#bfbfbf;"/>
  </g>
  <g id="axes_1">
   <g id="patch_2">
    <path d="
M1.8 70.2
L70.2 70.2
L70.2 1.8
L1.8 1.8
z
" style="fill:#bfd1d4;"/>
   </g>
   <g id="line2d_1">
    <path clip-path="url(#p1f55b5d02f)" d="
M7.5 36
L8.925 27.193
L10.35 19.2481
L11.775 12.943
L13.2 8.89489
L14.625 7.5
L16.05 8.89489
L17.475 12.943
L18.9 19.2481
L20.325 27.193
L21.75 36
L23.175 44.807
L24.6 52.7519
L26.025 59.057
L27.45 63.1051
L28.875 64.5
L30.3 63.1051
L31.725 59.057
L33.15 52.7519
L34.575 44.807
L36 36
L37.425 27.193
L38.85 19.2481
L40.275 12.943
L41.7 8.89489
L43.125 7.5
L44.55 8.89489
L45.975 12.943
L47.4 19.2481
L48.825 27.193
L50.25 36
L51.675 44.807
L53.1 52.7519
L54.525 59.057
L55.95 63.1051
L57.375 64.5
L58.8 63.1051
L60.225 59.057
L61.65 52.7519
L63.075 44.807" style="fill:none;stroke:#ca7900;stroke-width:4;"/>
   </g>
   <g id="matplotlib.axis_1">
    <g id="xtick_1">
     <g id="line2d_2">
      <defs>
       <path d="
M0 0
L0 -4" id="m357c5ee6a6"/>
      </defs>
      <g>
       <use style="stroke:#000000;stroke-linecap:butt;stroke-width:0.5;" x="7.5" xlink:href="#m357c5ee6a6" y="70.2"/>
      </g>
     </g>
     <g id="line2d_3">
      <defs>
       <path d="
M0 0
L0 4" id="mf644ed8138"/>
      </defs>
      <g>
       <use style="stroke:#000000;stroke-linecap:butt;stroke-width:0.5;" x="7.5" xlink:href="#mf644ed8138" y="1.8"/>
      </g>
     </g>
    </g>
    <g id="xtick_2">
     <g id="line2d_4">
      <defs>
       <path d="
M0 0
L0 -4" id="m357c5ee6a6"/>
      </defs>
      <g>
       <use style="stroke:#000000;stroke-linecap:butt;stroke-width:0.5;" x="21.75" xlink:href="#m357c5ee6a6" y="70.2"/>
      </g>
     </g>
     <g id="line2d_5">
      <defs>
       <path d="
M0 0
L0 4" id="mf644ed8138"/>
      </defs>
      <g>
       <use style="stroke:#000000;stroke-linecap:butt;stroke-width:0.5;" x="21.75" xlink:href="#mf644ed8138" y="1.8"/>
      </g>
     </g>
    </g>
    <g id="xtick_3">
     <g id="line2d_6">
      <defs>
       <path d="
M0 0
L0 -4" id="m357c5ee6a6"/>
      </defs>
      <g>
       <use style="stroke:#000000;stroke-linecap:butt;stroke-width:0.5;" x="36.0" xlink:href="#m357c5ee6a6" y="70.2"/>
      </g>
     </g>
     <g id="line2d_7">
      <defs>
       <path d="
M0 0
L0 4" id="mf644ed8138"/>
      </defs>
      <g>
       <use style="stroke:#000000;stroke-linecap:butt;stroke-width:0.5;" x="36.0" xlink:href="#mf644ed8138" y="1.8"/>
      </g>
     </g>
    </g>
    <g id="xtick_4">
     <g id="line2d_8">
      <defs>
       <path d="
M0 0
L0 -4" id="m357c5ee6a6"/>
      </defs>
      <g>
       <use style="stroke:#000000;stroke-linecap:butt;stroke-width:0.5;" x="50.25" xlink:href="#m357c5ee6a6" y="70.2"/>
      </g>
     </g>
     <g id="line2d_9">
      <defs>
       <path d="
M0 0
L0 4" id="mf644ed8138"/>
      </defs>
      <g>
       <use style="stroke:#000000;stroke-linecap:butt;stroke-width:0.5;" x="50.25" xlink:href="#mf644ed8138" y="1.8"/>
      </g>
     </g>
    </g>
    <g id="xtick_5">
     <g id="line2d_10">
      <defs>
       <path d="
M0 0
L0 -4" id="m357c5ee6a6"/>
      </defs>
      <g>
       <use style="stroke:#000000;stroke-linecap:butt;stroke-width:0.5;" x="64.5" xlink:href="#m357c5ee6a6" y="70.2"/>
      </g>
     </g>
     <g id="line2d_11">
      <defs>
       <path d="
M0 0
L0 4" id="mf644ed8138"/>
      </defs>
      <g>
       <use style="stroke:#000000;stroke-linecap:butt;stroke-width:0.5;" x="64.5" xlink:href="#mf644ed8138" y="1.8"/>
      </g>
     </g>
    </g>
   </g>
   <g id="matplotlib.axis_2">
    <g id="ytick_1">
     <g id="line2d_12">
      <defs>
       <path d="
M0 0
L4 0" id="meb3777a251"/>
      </defs>
      <g>
       <use style="stroke:#000000;stroke-linecap:butt;stroke-width:0.5;" x="1.8" xlink:href="#meb3777a251" y="64.5"/>
      </g>
     </g>
     <g id="line2d_13">
      <defs>
       <path d="
M0 0
L-4 0" id="m46d74b71c5"/>
      </defs>
      <g>
       <use style="stroke:#000000;stroke-linecap:butt;stroke-width:0.5;" x="70.2" xlink:href="#m46d74b71c5" y="64.5"/>
      </g>
     </g>
    </g>
    <g id="ytick_2">
     <g id="line2d_14">
      <defs>
       <path d="
M0 0
L4 0" id="meb3777a251"/>
      </defs>
      <g>
       <use style="stroke:#000000;stroke-linecap:butt;stroke-width:0.5;" x="1.8" xlink:href="#meb3777a251" y="50.25"/>
      </g>
     </g>
     <g id="line2d_15">
      <defs>
       <path d="
M0 0
L-4 0" id="m46d74b71c5"/>
      </defs>
      <g>
       <use style="stroke:#000000;stroke-linecap:butt;stroke-width:0.5;" x="70.2" xlink:href="#m46d74b71c5" y="50.25"/>
      </g>
     </g>
    </g>
    <g id="ytick_3">
     <g id="line2d_16">
      <defs>
       <path d="
M0 0
L4 0" id="meb3777a251"/>
      </defs>
      <g>
       <use style="stroke:#000000;stroke-linecap:butt;stroke-width:0.5;" x="1.8" xlink:href="#meb3777a251" y="36.0"/>
      </g>
     </g>
     <g id="line2d_17">
      <defs>
       <path d="
M0 0
L-4 0" id="m46d74b71c5"/>
      </defs>
      <g>
       <use style="stroke:#000000;stroke-linecap:butt;stroke-width:0.5;" x="70.2" xlink:href="#m46d74b71c5" y="36.0"/>
      </g>
     </g>
    </g>
    <g id="ytick_4">
     <g id="line2d_18">
      <defs>
       <path d="
M0 0
L4 0" id="meb3777a251"/>
      </defs>
      <g>
       <use style="stroke:#000000;stroke-linecap:butt;stroke-width:0.5;" x="1.8" xlink:href="#meb3777a251" y="21.75"/>
      </g>
     </g>
     <g id="line2d_19">
      <defs>
       <path d="
M0 0
L-4 0" id="m46d74b71c5"/>
      </defs>
      <g>
       <use style="stroke:#000000;stroke-linecap:butt;stroke-width:0.5;" x="70.2" xlink:href="#m46d74b71c5" y="21.75"/>
      </g>
     </g>
    </g>
    <g id="ytick_5">
     <g id="line2d_20">
      <defs>
       <path d="
M0 0
L4 0" id="meb3777a251"/>
      </defs>
      <g>
       <use style="stroke:#000000;stroke-linecap:butt;stroke-width:0.5;" x="1.8" xlink:href="#meb3777a251" y="7.5"/>
      </g>
     </g>
     <g id="line2d_21">
      <defs>
       <path d="
M0 0
L-4 0" id="m46d74b71c5"/>
      </defs>
      <g>
       <use style="stroke:#000000;stroke-linecap:butt;stroke-width:0.5;" x="70.2" xlink:href="#m46d74b71c5" y="7.5"/>
      </g>
     </g>
    </g>
   </g>
   <g id="patch_3">
    <path d="
M1.8 1.8
L70.2 1.8" style="fill:none;stroke:#000000;"/>
   </g>
   <g id="patch_4">
    <path d="
M70.2 70.2
L70.2 1.8" style="fill:none;stroke:#000000;"/>
   </g>
   <g id="patch_5">
    <path d="
M1.8 70.2
L70.2 70.2" style="fill:none;stroke:#000000;"/>
   </g>
   <g id="patch_6">
    <path d="
M1.8 70.2
L1.8 1.8" style="fill:none;stroke:#000000;"/>
   </g>
  </g>
 </g>
 <defs>
  <clipPath id="p1f55b5d02f">
   <rect height="68.4" width="68.4" x="1.8" y="1.8"/>
  </clipPath>
 </defs>
</svg>
